<svg xmlns="http://www.w3.org/2000/svg" viewBox="0 0 256 256">
  <defs>
    <linearGradient id="bg" x1="0%" y1="0%" x2="100%" y2="100%">
      <stop offset="0%" stop-color="#140f2d"/>
      <stop offset="100%" stop-color="#1e3a8a"/>
    </linearGradient>
    <linearGradient id="cape" x1="0%" y1="0%" x2="100%" y2="100%">
      <stop offset="0%" stop-color="#fb7185"/>
      <stop offset="100%" stop-color="#ea580c"/>
    </linearGradient>
  </defs>
  <rect width="256" height="256" rx="48" fill="url(#bg)"/>

  <path d="M186 68 L214 152 L178 136 L158 160 Z" fill="url(#cape)" opacity="0.95"/>

  <rect x="28" y="54" width="170" height="122" rx="18" fill="#05070b" stroke="#7dd3fc" stroke-width="6"/>
  <path d="M58 101 L84 119 L58 137" fill="none" stroke="#7dd3fc" stroke-width="11" stroke-linecap="round" stroke-linejoin="round"/>
  <path d="M102 142 H156" fill="none" stroke="#f8fafc" stroke-width="11" stroke-linecap="round"/>

  <circle cx="181" cy="84" r="22" fill="#fde68a"/>
  <path d="M167 80 H195" fill="none" stroke="#0f172a" stroke-width="7" stroke-linecap="round"/>
  <path d="M166 84 Q181 72 196 84" fill="none" stroke="#0f172a" stroke-width="5" stroke-linecap="round"/>

  <rect x="152" y="106" width="58" height="66" rx="20" fill="#f8fafc"/>
  <path d="M166 121 H196 L202 135 L181 159 L160 135 Z" fill="#2563eb"/>
  <path d="M170 130 H192" fill="none" stroke="#f8fafc" stroke-width="7" stroke-linecap="round"/>
  <path d="M166 171 L156 200" fill="none" stroke="#f8fafc" stroke-width="10" stroke-linecap="round"/>
  <path d="M196 171 L206 200" fill="none" stroke="#f8fafc" stroke-width="10" stroke-linecap="round"/>
  <path d="M158 122 L138 147" fill="none" stroke="#f8fafc" stroke-width="10" stroke-linecap="round"/>
  <path d="M204 122 L220 144" fill="none" stroke="#f8fafc" stroke-width="10" stroke-linecap="round"/>

  <circle cx="128" cy="212" r="16" fill="#f97316"/>
  <path d="M128 182 V212" fill="none" stroke="#f97316" stroke-width="10" stroke-linecap="round"/>
</svg>
